# xmcd CD database file
#
# Track frame offsets:
#	150
#	16414
#	31169
#	44255
#	53475
#	66300
#	78665
#	91691
#	107453
#	117966
#	136657
#
# Disc length: 1889 seconds
#
# Revision: 0
# Processed by: cddbd v1.5.2PL0 Copyright (c) Steve Scherf et al.
# Submitted via: CDex 1.70beta2
#
DISCID=7e075f0b
DTITLE=The Travelling Mabels - The Travelling Mabels
DYEAR=2009
DGENRE=Country
TTITLE0=Smolder Blues
TTITLE1=Love Is Strange
TTITLE2=Alberta Blue
TTITLE3=Mabel
TTITLE4=Nothing To Lose But The Blues
TTITLE5=Let Me In
TTITLE6=Change
TTITLE7=Remember
TTITLE8=In My Mind
TTITLE9=Butterfly
TTITLE10=Traveller's Lullaby
EXTD=YEAR: 2009
EXTT0=
EXTT1=
EXTT2=
EXTT3=
EXTT4=
EXTT5=
EXTT6=
EXTT7=
EXTT8=
EXTT9=
EXTT10=
PLAYORDER=
